# xmcd
#
# Track frame offsets:
#	150
#	14721
#	27259
#	45947
#	56488
#	72130
#	87726
#	98385
#	113527
#	129645
#	145287
#	155393
#	173962
#	185216
#	199527
#	212985
#	226859
#
# Disc length: 3276 seconds
#
# Revision: 0
# Processed by: cddbd v1.5.1PL0 Copyright (c) Steve Scherf et al.
# Submitted via: MusicManager 7.2.0.0 
#
DISCID=e80cca11
DTITLE=The Corsairs (UK) - The Man In Black
DYEAR=2005
DGENRE=blues
TTITLE0=Breakfree
TTITLE1=Slow Down
TTITLE2=Send Me That Letter
TTITLE3=Motormania
TTITLE4=Moody Blue Dance
TTITLE5=Don't Get Me Wrong
TTITLE6=Susannah
TTITLE7=Best Friend's Girl
TTITLE8=Baby Be Mine
TTITLE9=Can't Get You Out Of My Head
TTITLE10=One Night With You
TTITLE11=I've Told You
TTITLE12=Gate 49
TTITLE13=Don't You Walk Away
TTITLE14=Breakaway
TTITLE15=Perfect Cousin
TTITLE16=The Man In Black
EXTD=
EXTT0=
EXTT1=
EXTT2=
EXTT3=
EXTT4=
EXTT5=
EXTT6=
EXTT7=
EXTT8=
EXTT9=
EXTT10=
EXTT11=
EXTT12=
EXTT13=
EXTT14=
EXTT15=
EXTT16=
PLAYORDER=
